Coordinates
version=1
nRows=13
nColumns=22
inDegrees=yes

Units are S.I. units (second, meters, Newtons, ...)
If the header above contains a line with 'inDegrees', this indicates whether rotational values are in degrees (yes) or radians (no).

endheader
time	pelvis_tilt	pelvis_list	pelvis_rotation	pelvis_tx	pelvis_ty	pelvis_tz	hip_flexion_r	hip_adduction_r	hip_rotation_r	knee_angle_r	ankle_angle_r	subtalar_angle_r	hip_flexion_l	hip_adduction_l	hip_rotation_l	knee_angle_l	ankle_angle_l	subtalar_angle_l	lumbar_extension	lumbar_bending	lumbar_rotation
      5.50000000	     -2.43158884	      1.18217324	   -104.77119878	      0.69997789	      0.93297934	      0.60654562	     20.48157321	      9.49027652	    -12.51267825	    -23.47827632	      7.08771811	    -13.63959553	      6.36125110	     -8.80201175	     -5.50834424	    -60.66682037	      0.72778842	     10.09004862	     -7.01202587	      4.76938519	     -5.54811520
      5.51000000	     -2.38826319	      1.09432236	   -105.75921931	      0.69533267	      0.93417854	      0.61392316	     19.68247937	      9.88554090	    -11.54028810	    -23.30833536	      7.37388047	    -13.70871782	      7.74427161	     -8.94243403	     -5.29423762	    -62.39092289	      1.44805624	      9.59422038	     -7.06316783	      4.54669583	     -5.05334487
      5.52000000	     -2.32509262	      1.04478508	   -106.74003621	      0.69066114	      0.93533346	      0.62111218	     18.90365955	     10.24788037	    -10.57168107	    -23.09068835	      7.60125669	    -13.77405741	      9.17587702	     -9.04618552	     -5.00499001	    -63.90881093	      2.11101213	      9.03351584	     -7.05529901	      4.30185188	     -4.59246044
      5.53000000	     -2.30778105	      0.97267261	   -107.71090706	      0.68596968	      0.93649434	      0.62817908	     18.06411436	     10.61398648	     -9.68313829	    -22.83736256	      7.89300694	    -13.80633115	     10.55533811	     -9.17011641	     -4.65031565	    -65.21644152	      2.84129500	      8.56767723	     -7.07879630	      4.09617037	     -4.13750257
      5.54000000	     -2.24351667	      0.95698909	   -108.68191040	      0.68128797	      0.93752932	      0.63503683	     17.28527993	     10.93081688	     -8.76074281	    -22.55392550	      8.11903765	    -13.84779397	     12.00232500	     -9.21619860	     -4.21751888	    -66.31222997	      3.44356769	      7.94662616	     -7.02359402	      3.85508447	     -3.70845299
      5.55000000	     -2.21133272	      0.91309251	   -109.66473868	      0.67659046	      0.93855918	      0.64174335	     16.44763773	     11.24935945	     -7.83388071	    -22.23600426	      8.32558739	    -13.85428400	     13.37681001	     -9.25174307	     -3.72972040	    -67.18361041	      4.09385953	      7.49826643	     -7.01417626	      3.63923948	     -3.26836282
      5.56000000	     -2.18975313	      0.86451742	   -110.65039595	      0.67192005	      0.93950558	      0.64829959	     15.60227616	     11.54756276	     -6.92277721	    -21.91731861	      8.57896852	    -13.85848921	     14.71126007	     -9.25446741	     -3.18255546	    -67.83741410	      4.76515133	      7.09958456	     -7.01930754	      3.43845931	     -2.82678510
      5.57000000	     -2.14646651	      0.82755549	   -111.66047671	      0.66727872	      0.94034717	      0.65467358	     14.78518944	     11.80994599	     -5.96047369	    -21.60889851	      8.80469752	    -13.86350201	     16.02431597	     -9.19603660	     -2.60305752	    -68.26586898	      5.37611373	      6.68949585	     -7.01368673	      3.22459310	     -2.37569538
      5.58000000	     -2.07679433	      0.79233473	   -112.69778534	      0.66266860	      0.94109718	      0.66087543	     13.99215957	     12.02769015	     -4.95705284	    -21.31636273	      9.00571924	    -13.88369885	     17.29684909	     -9.07530727	     -2.01003674	    -68.46098803	      5.90355538	      6.22045366	     -7.00722958	      2.98956810	     -1.90926700
      5.59000000	     -2.04540503	      0.74880676	   -113.73948575	      0.65811586	      0.94175604	      0.66696161	     13.18845673	     12.25093611	     -3.97512886	    -21.04194709	      9.26484077	    -13.90152751	     18.49653597	     -8.95627210	     -1.37531631	    -68.44684877	      6.49814001	      5.90652438	     -7.03452101	      2.80364799	     -1.43847058
      5.60000000	     -1.99628063	      0.70739784	   -114.81271857	      0.65359583	      0.94233130	      0.67290775	     12.40334605	     12.44017524	     -2.94214437	    -20.78189652	      9.49858962	    -13.93120612	     19.63883273	     -8.79399743	     -0.74380886	    -68.20511807	      7.02091710	      5.61385812	     -7.05984352	      2.60528898	     -0.94323215
      5.61000000	     -1.95263890	      0.66751601	   -115.89483659	      0.64913704	      0.94281789	      0.67875462	     11.62821109	     12.61084924	     -1.89919410	    -20.53790579	      9.74415713	    -13.97190898	     20.71620517	     -8.60513725	     -0.08694194	    -67.75100555	      7.51678270	      5.37162636	     -7.09149463	      2.42209284	     -0.45219238
      5.62000000	     -1.91392448	      0.63023499	   -116.98338995	      0.64475254	      0.94321987	      0.68449445	     10.86325407	     12.76170176	     -0.84509872	    -20.30508949	      9.99594977	    -14.01943051	     21.73319582	     -8.39212061	      0.59110913	    -67.09692912	      7.98596528	      5.19061630	     -7.13076742	      2.25383519	      0.03719744
